<mxfile host="app.diagrams.net" agent="Mozilla/5.0 (Windows NT 10.0; Win64; x64) AppleWebKit/537.36 (KHTML, like Gecko) Chrome/128.0.0.0 Safari/537.36" version="24.7.14">
  <diagram id="prtHgNgQTEPvFCAcTncT" name="Page-1">
    <mxGraphModel dx="989" dy="509" grid="1" gridSize="10" guides="1" tooltips="1" connect="1" arrows="1" fold="1" page="1" pageScale="1" pageWidth="827" pageHeight="1169" math="0" shadow="0">
      <root>
        <mxCell id="0" />
        <mxCell id="1" parent="0" />
        <mxCell id="vcjDPxFZuVRgxacgYTHh-3" value="" style="endArrow=none;html=1;rounded=0;" edge="1" parent="1">
          <mxGeometry width="50" height="50" relative="1" as="geometry">
            <mxPoint x="120" y="160" as="sourcePoint" />
            <mxPoint x="570" y="160" as="targetPoint" />
          </mxGeometry>
        </mxCell>
        <mxCell id="vcjDPxFZuVRgxacgYTHh-4" value="" style="endArrow=none;html=1;rounded=0;" edge="1" parent="1" source="vcjDPxFZuVRgxacgYTHh-16">
          <mxGeometry width="50" height="50" relative="1" as="geometry">
            <mxPoint x="120" y="280" as="sourcePoint" />
            <mxPoint x="570" y="280" as="targetPoint" />
          </mxGeometry>
        </mxCell>
        <mxCell id="vcjDPxFZuVRgxacgYTHh-6" value="" style="endArrow=none;html=1;rounded=0;fontStyle=1" edge="1" parent="1">
          <mxGeometry width="50" height="50" relative="1" as="geometry">
            <mxPoint x="120" y="400" as="sourcePoint" />
            <mxPoint x="570" y="400" as="targetPoint" />
          </mxGeometry>
        </mxCell>
        <mxCell id="vcjDPxFZuVRgxacgYTHh-8" value="production" style="text;html=1;align=center;verticalAlign=middle;whiteSpace=wrap;rounded=0;" vertex="1" parent="1">
          <mxGeometry x="52" y="144" width="60" height="30" as="geometry" />
        </mxCell>
        <mxCell id="vcjDPxFZuVRgxacgYTHh-9" value="main" style="text;html=1;align=center;verticalAlign=middle;whiteSpace=wrap;rounded=0;" vertex="1" parent="1">
          <mxGeometry x="54" y="265" width="60" height="30" as="geometry" />
        </mxCell>
        <mxCell id="vcjDPxFZuVRgxacgYTHh-10" value="release" style="text;html=1;align=center;verticalAlign=middle;whiteSpace=wrap;rounded=0;" vertex="1" parent="1">
          <mxGeometry x="55" y="384" width="60" height="30" as="geometry" />
        </mxCell>
        <mxCell id="vcjDPxFZuVRgxacgYTHh-13" value="" style="endArrow=none;html=1;rounded=0;" edge="1" parent="1" target="vcjDPxFZuVRgxacgYTHh-7">
          <mxGeometry width="50" height="50" relative="1" as="geometry">
            <mxPoint x="120" y="280" as="sourcePoint" />
            <mxPoint x="570" y="280" as="targetPoint" />
          </mxGeometry>
        </mxCell>
        <mxCell id="vcjDPxFZuVRgxacgYTHh-15" style="rounded=0;orthogonalLoop=1;jettySize=auto;html=1;exitX=1;exitY=1;exitDx=0;exitDy=0;entryX=0;entryY=0;entryDx=0;entryDy=0;" edge="1" parent="1" source="vcjDPxFZuVRgxacgYTHh-7" target="vcjDPxFZuVRgxacgYTHh-14">
          <mxGeometry relative="1" as="geometry" />
        </mxCell>
        <mxCell id="vcjDPxFZuVRgxacgYTHh-7" value="" style="ellipse;whiteSpace=wrap;html=1;aspect=fixed;fillColor=#dae8fc;strokeColor=#6c8ebf;" vertex="1" parent="1">
          <mxGeometry x="115" y="267.5" width="25" height="25" as="geometry" />
        </mxCell>
        <mxCell id="vcjDPxFZuVRgxacgYTHh-18" style="rounded=0;orthogonalLoop=1;jettySize=auto;html=1;exitX=1;exitY=0;exitDx=0;exitDy=0;entryX=0;entryY=1;entryDx=0;entryDy=0;" edge="1" parent="1" source="vcjDPxFZuVRgxacgYTHh-14" target="vcjDPxFZuVRgxacgYTHh-16">
          <mxGeometry relative="1" as="geometry" />
        </mxCell>
        <mxCell id="vcjDPxFZuVRgxacgYTHh-14" value="" style="ellipse;whiteSpace=wrap;html=1;aspect=fixed;fillColor=#e1d5e7;strokeColor=#9673a6;" vertex="1" parent="1">
          <mxGeometry x="177" y="388" width="25" height="25" as="geometry" />
        </mxCell>
        <mxCell id="vcjDPxFZuVRgxacgYTHh-17" value="" style="endArrow=none;html=1;rounded=0;" edge="1" parent="1" source="vcjDPxFZuVRgxacgYTHh-7" target="vcjDPxFZuVRgxacgYTHh-16">
          <mxGeometry width="50" height="50" relative="1" as="geometry">
            <mxPoint x="140" y="280" as="sourcePoint" />
            <mxPoint x="570" y="280" as="targetPoint" />
          </mxGeometry>
        </mxCell>
        <mxCell id="vcjDPxFZuVRgxacgYTHh-20" style="rounded=0;orthogonalLoop=1;jettySize=auto;html=1;exitX=1;exitY=0;exitDx=0;exitDy=0;entryX=0;entryY=1;entryDx=0;entryDy=0;" edge="1" parent="1" source="vcjDPxFZuVRgxacgYTHh-16" target="vcjDPxFZuVRgxacgYTHh-19">
          <mxGeometry relative="1" as="geometry" />
        </mxCell>
        <mxCell id="vcjDPxFZuVRgxacgYTHh-16" value="" style="ellipse;whiteSpace=wrap;html=1;aspect=fixed;fillColor=#dae8fc;strokeColor=#6c8ebf;" vertex="1" parent="1">
          <mxGeometry x="250" y="267.5" width="25" height="25" as="geometry" />
        </mxCell>
        <mxCell id="vcjDPxFZuVRgxacgYTHh-19" value="" style="ellipse;whiteSpace=wrap;html=1;aspect=fixed;fillColor=#f8cecc;strokeColor=#b85450;" vertex="1" parent="1">
          <mxGeometry x="328" y="146" width="25" height="25" as="geometry" />
        </mxCell>
      </root>
    </mxGraphModel>
  </diagram>
</mxfile>
